<svg width="1496" height="432" viewBox="0 0 1496 432" fill="none" xmlns="http://www.w3.org/2000/svg">
<path d="M309.606 259.283C303.286 259.283 297.406 258.242 291.966 256.162C286.606 254.002 281.926 251.002 277.926 247.162C274.006 243.242 270.926 238.722 268.686 233.602C266.526 228.402 265.446 222.722 265.446 216.562C265.446 210.402 266.526 204.762 268.686 199.642C270.926 194.442 274.006 189.922 277.926 186.082C281.926 182.162 286.606 179.162 291.966 177.082C297.326 174.922 303.206 173.842 309.606 173.842C315.926 173.842 321.766 174.922 327.126 177.082C332.486 179.162 337.126 182.122 341.046 185.962C345.046 189.802 348.126 194.322 350.286 199.522C352.526 204.722 353.646 210.402 353.646 216.562C353.646 222.722 352.526 228.402 350.286 233.602C348.126 238.802 345.046 243.322 341.046 247.162C337.126 251.002 332.486 254.002 327.126 256.162C321.766 258.242 315.926 259.283 309.606 259.283ZM309.606 251.362C314.646 251.362 319.286 250.522 323.526 248.842C327.846 247.082 331.566 244.642 334.686 241.522C337.886 238.322 340.366 234.642 342.126 230.482C343.886 226.242 344.766 221.602 344.766 216.562C344.766 211.522 343.886 206.922 342.126 202.762C340.366 198.522 337.886 194.842 334.686 191.722C331.566 188.522 327.846 186.082 323.526 184.402C319.286 182.642 314.646 181.762 309.606 181.762C304.566 181.762 299.886 182.642 295.566 184.402C291.246 186.082 287.486 188.522 284.286 191.722C281.166 194.842 278.686 198.522 276.846 202.762C275.086 206.922 274.206 211.522 274.206 216.562C274.206 221.522 275.086 226.122 276.846 230.362C278.686 234.602 281.166 238.322 284.286 241.522C287.486 244.642 291.246 247.082 295.566 248.842C299.886 250.522 304.566 251.362 309.606 251.362Z" fill="#E86506"/>
<path d="M371.75 258.562V195.562H379.91V212.722L379.07 209.722C380.83 204.922 383.79 201.282 387.95 198.802C392.11 196.242 397.27 194.962 403.43 194.962V203.242C403.11 203.242 402.79 203.242 402.47 203.242C402.15 203.162 401.83 203.122 401.51 203.122C394.87 203.122 389.67 205.162 385.91 209.242C382.15 213.242 380.27 218.962 380.27 226.402V258.562H371.75ZM418.977 258.562V195.562H427.497V258.562H418.977ZM423.297 181.642C421.537 181.642 420.057 181.042 418.857 179.842C417.657 178.642 417.057 177.202 417.057 175.522C417.057 173.842 417.657 172.442 418.857 171.322C420.057 170.122 421.537 169.522 423.297 169.522C425.057 169.522 426.537 170.082 427.737 171.202C428.937 172.322 429.537 173.722 429.537 175.402C429.537 177.162 428.937 178.642 427.737 179.842C426.617 181.042 425.137 181.642 423.297 181.642ZM476.884 259.163C470.804 259.163 465.324 257.802 460.444 255.082C455.644 252.282 451.844 248.482 449.044 243.682C446.244 238.802 444.844 233.242 444.844 227.002C444.844 220.682 446.244 215.122 449.044 210.322C451.844 205.522 455.644 201.762 460.444 199.042C465.244 196.322 470.724 194.962 476.884 194.962C483.124 194.962 488.644 196.322 493.444 199.042C498.324 201.762 502.124 205.522 504.844 210.322C507.644 215.122 509.044 220.682 509.044 227.002C509.044 233.242 507.644 238.802 504.844 243.682C502.124 248.482 498.324 252.282 493.444 255.082C488.564 257.802 483.044 259.163 476.884 259.163ZM476.884 251.602C481.444 251.602 485.484 250.602 489.004 248.602C492.524 246.522 495.284 243.642 497.284 239.962C499.364 236.202 500.404 231.882 500.404 227.002C500.404 222.042 499.364 217.722 497.284 214.042C495.284 210.362 492.524 207.522 489.004 205.522C485.484 203.442 481.484 202.402 477.004 202.402C472.524 202.402 468.524 203.442 465.004 205.522C461.484 207.522 458.684 210.362 456.604 214.042C454.524 217.722 453.484 222.042 453.484 227.002C453.484 231.882 454.524 236.202 456.604 239.962C458.684 243.642 461.484 246.522 465.004 248.602C468.524 250.602 472.484 251.602 476.884 251.602ZM558.598 194.962C563.718 194.962 568.198 195.962 572.038 197.963C575.958 199.882 578.998 202.842 581.158 206.842C583.398 210.842 584.518 215.882 584.518 221.962V258.562H575.998V222.802C575.998 216.162 574.318 211.162 570.958 207.802C567.678 204.362 563.038 202.642 557.038 202.642C552.558 202.642 548.638 203.562 545.278 205.402C541.998 207.162 539.438 209.762 537.598 213.202C535.838 216.562 534.958 220.642 534.958 225.442V258.562H526.438V195.562H534.598V212.842L533.278 209.602C535.278 205.042 538.478 201.482 542.878 198.922C547.278 196.282 552.518 194.962 558.598 194.962ZM738.926 259.163C732.686 259.163 727.086 257.802 722.126 255.082C717.246 252.282 713.406 248.482 710.606 243.682C707.806 238.802 706.406 233.242 706.406 227.002C706.406 220.682 707.806 215.122 710.606 210.322C713.406 205.522 717.246 201.762 722.126 199.042C727.086 196.322 732.686 194.962 738.926 194.962C744.286 194.962 749.126 196.002 753.446 198.082C757.766 200.162 761.166 203.282 763.646 207.442L757.286 211.762C755.126 208.562 752.446 206.202 749.246 204.682C746.046 203.162 742.566 202.402 738.806 202.402C734.326 202.402 730.286 203.442 726.686 205.522C723.086 207.522 720.246 210.362 718.166 214.042C716.086 217.722 715.046 222.042 715.046 227.002C715.046 231.962 716.086 236.282 718.166 239.962C720.246 243.642 723.086 246.522 726.686 248.602C730.286 250.602 734.326 251.602 738.806 251.602C742.566 251.602 746.046 250.842 749.246 249.322C752.446 247.802 755.126 245.482 757.286 242.362L763.646 246.682C761.166 250.762 757.766 253.882 753.446 256.042C749.126 258.122 744.286 259.163 738.926 259.163ZM811.606 194.962C816.726 194.962 821.206 195.962 825.046 197.963C828.966 199.882 832.006 202.842 834.166 206.842C836.406 210.842 837.526 215.882 837.526 221.962V258.562H829.006V222.802C829.006 216.162 827.326 211.162 823.966 207.802C820.686 204.362 816.046 202.642 810.046 202.642C805.566 202.642 801.646 203.562 798.286 205.402C795.006 207.162 792.446 209.762 790.606 213.202C788.846 216.562 787.966 220.642 787.966 225.442V258.562H779.446V169.522H787.966V212.842L786.286 209.602C788.286 205.042 791.486 201.482 795.886 198.922C800.286 196.282 805.526 194.962 811.606 194.962ZM887.3 259.163C880.74 259.163 874.98 257.802 870.02 255.082C865.06 252.282 861.18 248.482 858.38 243.682C855.58 238.802 854.18 233.242 854.18 227.002C854.18 220.762 855.5 215.242 858.14 210.442C860.86 205.642 864.54 201.882 869.18 199.162C873.9 196.362 879.18 194.962 885.02 194.962C890.94 194.962 896.18 196.322 900.74 199.042C905.38 201.682 909.02 205.442 911.66 210.322C914.3 215.122 915.62 220.682 915.62 227.002C915.62 227.402 915.58 227.842 915.5 228.322C915.5 228.722 915.5 229.162 915.5 229.642H860.66V223.283H910.94L907.58 225.802C907.58 221.242 906.58 217.202 904.58 213.682C902.66 210.082 900.02 207.282 896.66 205.282C893.3 203.282 889.42 202.282 885.02 202.282C880.7 202.282 876.82 203.282 873.38 205.282C869.94 207.282 867.26 210.082 865.34 213.682C863.42 217.282 862.46 221.402 862.46 226.042V227.362C862.46 232.162 863.5 236.402 865.58 240.082C867.74 243.682 870.7 246.522 874.46 248.602C878.3 250.602 882.66 251.602 887.54 251.602C891.38 251.602 894.94 250.922 898.22 249.562C901.58 248.202 904.46 246.122 906.86 243.322L911.66 248.842C908.86 252.202 905.34 254.762 901.1 256.522C896.94 258.282 892.34 259.163 887.3 259.163ZM958.041 259.163C952.041 259.163 946.641 257.802 941.841 255.082C937.121 252.362 933.401 248.602 930.681 243.802C927.961 238.922 926.601 233.322 926.601 227.002C926.601 220.602 927.961 215.002 930.681 210.202C933.401 205.402 937.121 201.682 941.841 199.042C946.641 196.322 952.041 194.962 958.041 194.962C963.561 194.962 968.481 196.202 972.801 198.682C977.201 201.162 980.681 204.802 983.241 209.602C985.881 214.322 987.201 220.122 987.201 227.002C987.201 233.802 985.921 239.602 983.361 244.402C980.801 249.202 977.321 252.882 972.921 255.442C968.601 257.923 963.641 259.163 958.041 259.163ZM958.641 251.602C963.121 251.602 967.121 250.602 970.641 248.602C974.241 246.522 977.041 243.642 979.041 239.962C981.121 236.202 982.161 231.882 982.161 227.002C982.161 222.042 981.121 217.722 979.041 214.042C977.041 210.362 974.241 207.522 970.641 205.522C967.121 203.442 963.121 202.402 958.641 202.402C954.241 202.402 950.281 203.442 946.761 205.522C943.241 207.522 940.441 210.362 938.361 214.042C936.281 217.722 935.241 222.042 935.241 227.002C935.241 231.882 936.281 236.202 938.361 239.962C940.441 243.642 943.241 246.522 946.761 248.602C950.281 250.602 954.241 251.602 958.641 251.602ZM982.401 258.562V239.602L983.241 226.883L982.041 214.162V169.522H990.561V258.562H982.401ZM1040.33 259.163C1034.97 259.163 1030.29 258.162 1026.29 256.162C1022.29 254.162 1019.17 251.162 1016.93 247.162C1014.77 243.162 1013.69 238.162 1013.69 232.162V195.562H1022.21V231.202C1022.21 237.922 1023.85 243.002 1027.13 246.442C1030.49 249.802 1035.17 251.482 1041.17 251.482C1045.57 251.482 1049.37 250.602 1052.57 248.842C1055.85 247.002 1058.33 244.362 1060.01 240.923C1061.77 237.482 1062.65 233.362 1062.65 228.562V195.562H1071.17V258.562H1063.01V241.282L1064.33 244.402C1062.33 249.042 1059.21 252.682 1054.97 255.322C1050.81 257.883 1045.93 259.163 1040.33 259.163ZM1094.91 258.562V169.522H1103.43V258.562H1094.91ZM1153.9 259.163C1147.34 259.163 1141.58 257.802 1136.62 255.082C1131.66 252.282 1127.78 248.482 1124.98 243.682C1122.18 238.802 1120.78 233.242 1120.78 227.002C1120.78 220.762 1122.1 215.242 1124.74 210.442C1127.46 205.642 1131.14 201.882 1135.78 199.162C1140.5 196.362 1145.78 194.962 1151.62 194.962C1157.54 194.962 1162.78 196.322 1167.34 199.042C1171.98 201.682 1175.62 205.442 1178.26 210.322C1180.9 215.122 1182.22 220.682 1182.22 227.002C1182.22 227.402 1182.18 227.842 1182.1 228.322C1182.1 228.722 1182.1 229.162 1182.1 229.642H1127.26V223.283H1177.54L1174.18 225.802C1174.18 221.242 1173.18 217.202 1171.18 213.682C1169.26 210.082 1166.62 207.282 1163.26 205.282C1159.9 203.282 1156.02 202.282 1151.62 202.282C1147.3 202.282 1143.42 203.282 1139.98 205.282C1136.54 207.282 1133.86 210.082 1131.94 213.682C1130.02 217.282 1129.06 221.402 1129.06 226.042V227.362C1129.06 232.162 1130.1 236.402 1132.18 240.082C1134.34 243.682 1137.3 246.522 1141.06 248.602C1144.9 250.602 1149.26 251.602 1154.14 251.602C1157.98 251.602 1161.54 250.922 1164.82 249.562C1168.18 248.202 1171.06 246.122 1173.46 243.322L1178.26 248.842C1175.46 252.202 1171.94 254.762 1167.7 256.522C1163.54 258.282 1158.94 259.163 1153.9 259.163ZM1199.56 258.562V195.562H1207.72V212.722L1206.88 209.722C1208.64 204.922 1211.6 201.282 1215.76 198.802C1219.92 196.242 1225.08 194.962 1231.24 194.962V203.242C1230.92 203.242 1230.6 203.242 1230.28 203.242C1229.96 203.162 1229.64 203.122 1229.32 203.122C1222.68 203.122 1217.48 205.162 1213.72 209.242C1209.96 213.242 1208.08 218.962 1208.08 226.402V258.562H1199.56Z" fill="#29323D"/>
<path d="M663.898 259.283C657.658 259.283 651.658 258.282 645.898 256.282C640.218 254.202 635.818 251.562 632.698 248.362L636.178 241.522C639.138 244.402 643.098 246.842 648.058 248.842C653.098 250.762 658.378 251.722 663.898 251.722C669.178 251.722 673.458 251.082 676.738 249.802C680.098 248.442 682.538 246.642 684.058 244.402C685.658 242.162 686.458 239.682 686.458 236.962C686.458 233.682 685.498 231.042 683.578 229.042C681.738 227.042 679.298 225.482 676.258 224.362C673.218 223.162 669.858 222.122 666.178 221.242C662.498 220.362 658.818 219.442 655.138 218.482C651.458 217.442 648.058 216.082 644.938 214.402C641.898 212.722 639.418 210.522 637.498 207.802C635.658 205.002 634.738 201.362 634.738 196.883C634.738 192.722 635.818 188.922 637.978 185.482C640.218 181.962 643.618 179.162 648.178 177.082C652.738 174.922 658.578 173.842 665.698 173.842C670.418 173.842 675.098 174.522 679.738 175.882C684.378 177.162 688.378 178.962 691.738 181.282L688.738 188.362C685.138 185.962 681.298 184.202 677.218 183.082C673.218 181.962 669.338 181.402 665.578 181.402C660.538 181.402 656.378 182.082 653.098 183.442C649.818 184.802 647.378 186.642 645.778 188.962C644.258 191.202 643.498 193.762 643.498 196.642C643.498 199.922 644.418 202.562 646.258 204.562C648.178 206.562 650.658 208.122 653.698 209.242C656.818 210.362 660.218 211.362 663.898 212.242C667.578 213.122 671.218 214.082 674.818 215.122C678.498 216.162 681.858 217.522 684.898 219.202C688.018 220.802 690.498 222.962 692.338 225.682C694.258 228.402 695.218 231.962 695.218 236.362C695.218 240.442 694.098 244.242 691.858 247.762C689.618 251.202 686.178 254.002 681.538 256.162C676.978 258.242 671.098 259.283 663.898 259.283Z" fill="#E0234E"/>
</svg>
